<?xml version="1.0" encoding="utf-8"?>
<!-- Generator: Adobe Illustrator 19.0.1, SVG Export Plug-In . SVG Version: 6.00 Build 0)  -->
<svg version="1.1" id="Шар_1" xmlns="http://www.w3.org/2000/svg" xmlns:xlink="http://www.w3.org/1999/xlink" x="0px" y="0px"
	 viewBox="-114 402.9 46 36" style="enable-background:new -114 402.9 46 36;" xml:space="preserve">
<style type="text/css">
	.st0{fill:#FFABB1;}
</style>
<g>
	<path class="st0" d="M-101,420.4c0.9-0.6,1.3-1.8,0.7-2.7s-1.8-1.3-2.7-0.7l-1.7,1c1.3-6.3,6.9-11.1,13.5-11.1
		c5.3,0,10,2.9,12.4,7.7c0.5,1,1.7,1.4,2.7,0.9c1-0.5,1.4-1.7,0.9-2.7c-3.1-6.1-9.2-9.9-15.9-9.9c-8.9,0-16.2,6.6-17.6,15.2
		l-1.9-1.7c-0.8-0.7-2.1-0.6-2.8,0.2c-0.7,0.8-0.6,2.1,0.2,2.8l5.7,4.9L-101,420.4z"/>
	<path class="st0" d="M-68.7,421.4l-5.7-4.9l-6.6,3.9c-1,0.6-1.3,1.8-0.7,2.7c0.6,1,1.8,1.3,2.7,0.7l1.8-1.1
		c-0.9,6.9-6.9,12.2-14.2,12.2c-5.5,0-10.4-3-12.8-7.7c-0.5-1-1.7-1.4-2.7-0.9c-1,0.5-1.4,1.7-0.9,2.7c3.1,6.1,9.4,9.9,16.4,9.9
		c9.5,0,17.3-7,18.3-16.1l1.8,1.6c0.4,0.3,0.8,0.5,1.3,0.5c0.6,0,1.1-0.2,1.5-0.7C-67.8,423.4-67.9,422.1-68.7,421.4z"/>
</g>
</svg>
